<?xml version="1.0" encoding="UTF-8" standalone="no"?>
<svg
   xmlns:dc="http://purl.org/dc/elements/1.1/"
   xmlns:cc="http://creativecommons.org/ns#"
   xmlns:rdf="http://www.w3.org/1999/02/22-rdf-syntax-ns#"
   xmlns:svg="http://www.w3.org/2000/svg"
   xmlns="http://www.w3.org/2000/svg"
   xmlns:xlink="http://www.w3.org/1999/xlink"
   xmlns:sodipodi="http://sodipodi.sourceforge.net/DTD/sodipodi-0.dtd"
   xmlns:inkscape="http://www.inkscape.org/namespaces/inkscape"
   width="47.887409mm"
   height="48.147717mm"
   version="1.1"
   id="svg386"
   sodipodi:docname="githooks-logo.svg"
   inkscape:version="1.0.1 (1.0.1+r73)">
  <metadata
     id="metadata392">
    <rdf:RDF>
      <cc:Work
         rdf:about="">
        <dc:format>image/svg+xml</dc:format>
        <dc:type
           rdf:resource="http://purl.org/dc/dcmitype/StillImage" />
        <dc:title></dc:title>
      </cc:Work>
    </rdf:RDF>
  </metadata>
  <defs
     id="defs390" />
  <sodipodi:namedview
     pagecolor="#ffffff"
     bordercolor="#666666"
     borderopacity="1"
     objecttolerance="10"
     gridtolerance="10"
     guidetolerance="10"
     inkscape:pageopacity="0"
     inkscape:pageshadow="2"
     inkscape:window-width="1882"
     inkscape:window-height="962"
     id="namedview388"
     showgrid="false"
     units="mm"
     inkscape:zoom="2.5429688"
     inkscape:cx="62.538576"
     inkscape:cy="182.80318"
     inkscape:window-x="0"
     inkscape:window-y="145"
     inkscape:window-maximized="0"
     inkscape:current-layer="svg386"
     fit-margin-top="0"
     fit-margin-left="0"
     fit-margin-right="0"
     fit-margin-bottom="0" />
  <g
     id="Layer_1"
     transform="matrix(0.96189997,0,0,0.9618989,-3.2354795,-3.6863707)"
     style="stroke-width:1.03961">
    <path
       d="m 188.65959,168.80637 c -0.79011,-1.94347 -2.07008,-3.52354 -3.53968,-4.69278 -1.4538,-1.16925 -3.14463,-1.89608 -4.69324,-2.21209 -1.62762,-0.33181 -3.08142,-0.28441 -4.36139,-0.0632 -1.26417,0.22121 -2.33872,0.60042 -3.16043,0.99544 -0.83752,0.39501 -1.4222,0.80583 -1.83305,1.09024 -0.39505,0.30021 -0.60048,0.45822 -0.60048,0.45822 -0.25284,0.20541 -0.31605,0.56882 -0.12642,0.83743 0.18963,0.28441 0.58468,0.36342 0.90072,0.14221 0,0 0.18963,-0.12641 0.55308,-0.37922 0.37925,-0.22121 0.91652,-0.55302 1.67502,-0.85323 0.74271,-0.30021 1.70664,-0.58462 2.81279,-0.71103 1.10615,-0.1264 2.40192,-0.079 3.66609,0.26861 1.34319,0.34762 2.62316,1.02704 3.77672,2.05408 1.13775,1.01124 2.08588,2.37009 2.60735,3.91855 0.53727,1.56427 0.55308,3.20753 0.17382,4.9298 -0.37925,1.70646 -1.13775,3.31813 -2.18069,4.83499 -3.6819,5.3722 -10.60324,8.29532 -17.00311,6.85746 -0.30024,-0.0632 -0.60048,-0.158 -0.90072,-0.23701 -1.84885,-0.94803 -3.61869,-2.00667 -5.24631,-3.27072 -5.43594,-4.23457 -8.01169,-11.13944 -9.49709,-17.8547 -1.65923,-7.52109 -3.17623,-14.77358 -5.48335,-22.13666 -1.34318,-4.28197 -2.82858,-8.53234 -4.51941,-12.7037 -1.37479,-3.39713 -2.9234,-6.82586 -4.59843,-10.223 -2.11748,-4.29776 -4.4562,-8.54813 -7.09516,-12.59309 -0.55307,-0.85323 -1.15355,-1.69066 -1.73823,-2.5281 0,-2.98631 -0.26864,-6.114835 -0.75851,-8.895743 -1.27997,-7.394689 0.15802,-8.548134 4.04535,-9.022152 3.44487,-0.410816 14.07971,3.191724 17.33496,0.316012 2.48093,-2.180485 2.41772,-3.823749 2.55994,-6.92067 0.20543,-4.250365 4.29819,-5.38801 6.43148,-5.846227 0.30024,0.395015 0.7427,0.679426 1.26417,0.77423 1.07454,0.173806 2.10168,-0.568822 2.27551,-1.643264 0.17382,-1.074442 -0.56888,-2.101482 -1.64343,-2.275289 -1.07454,-0.173807 -2.10168,0.568822 -2.27551,1.643264 -0.0158,0.110604 0.0158,0.205408 0.0158,0.316012 -1.51701,0.0316 -3.44487,-0.52142 -4.12436,-1.54846 -0.6953,-1.074442 2.92339,-5.530216 4.86706,-7.868707 0.23703,0.158006 0.50567,0.284411 0.80591,0.347614 1.07454,0.173807 2.10168,-0.568822 2.27551,-1.643264 0.17382,-1.074442 -0.56888,-2.101482 -1.64343,-2.275289 -1.07454,-0.173807 -2.10168,0.568822 -2.27551,1.643264 -0.0474,0.347614 0,0.663626 0.11062,0.963838 -1.80145,1.785469 -5.32532,5.230004 -6.28926,5.024596 -1.15355,-0.25281 -0.34764,-7.647499 0.079,-11.123634 0.7585,-0.173807 1.37478,-0.790031 1.5012,-1.611663 0.17382,-1.074442 -0.56888,-2.101482 -1.64342,-2.275289 -1.07455,-0.173806 -2.10169,0.568822 -2.27551,1.643264 -0.14222,0.900635 0.36345,1.722268 1.15355,2.085682 -0.7743,3.491936 -2.2755,10.902425 -3.14462,11.107833 -0.93233,0.237009 -2.24391,-5.309007 -3.04982,-8.832545 0.44246,-0.300211 0.79011,-0.758429 0.86912,-1.327251 0.17382,-1.074442 -0.56888,-2.101482 -1.64342,-2.275289 -1.07455,-0.173807 -2.10169,0.568822 -2.27551,1.643264 -0.17382,1.074442 0.56888,2.101482 1.64342,2.275289 0.0316,0 0.0474,0 0.079,0 0.47407,3.33393 0.99554,8.595535 0.50567,9.480369 -0.58468,1.042841 -3.22364,0.869034 -5.04088,0.584623 0.14222,-1.058641 -0.56888,-2.05408 -1.64343,-2.227887 -1.07454,-0.173807 -2.10168,0.568822 -2.2755,1.643264 -0.17383,1.074442 0.56887,2.101482 1.64342,2.275289 0.63208,0.0948 1.21676,-0.126405 1.64342,-0.537221 2.67056,1.169246 5.60976,2.543899 6.30506,4.850789 0.96393,3.207525 -2.08589,4.329369 -2.08589,4.329369 0,0 -14.7434,-0.568822 -19.64206,0.837433 -3.33425,0.948037 -3.35006,7.6949 -3.09722,12.972305 -0.79011,-0.79003 -1.56441,-1.611662 -2.38613,-2.354291 -1.99107,-1.817071 -4.15596,-3.523538 -6.41567,-5.135201 -4.80385,-3.412933 -10.129172,-6.304445 -15.691527,-8.279522 -3.302649,-1.185047 -6.684308,-2.05408 -10.097571,-2.528099 -1.406391,-0.205408 -2.844386,-0.426617 -4.298183,-0.679426 0.568877,-1.058642 1.817246,-3.918553 1.706631,-8.45333 -0.142219,-5.846228 -2.307113,-15.484604 0.09481,-20.050982 1.580215,-3.017917 4.203371,-5.324807 5.81519,-6.68366 0.268636,0.25281 0.600481,0.442417 0.995535,0.505619 1.074546,0.173807 2.101685,-0.568822 2.275509,-1.643264 0.173823,-1.074442 -0.568878,-2.101482 -1.643423,-2.275288 -1.074546,-0.173807 -2.101686,0.568822 -2.275509,1.643264 -0.06321,0.410816 0.0316,0.790031 0.205428,1.137644 -1.769841,1.437856 -4.12436,2.654504 -5.246313,1.769669 -1.264171,-0.979638 1.011338,-5.482814 2.243905,-7.884507 0.09481,0.0316 0.189626,0.0948 0.300241,0.110604 1.074546,0.173807 2.101685,-0.568822 2.275509,-1.643264 0.173823,-1.074442 -0.568878,-2.101482 -1.643423,-2.275289 -1.074546,-0.173807 -2.101686,0.568822 -2.275509,1.643264 -0.110615,0.663626 0.158021,1.27985 0.616283,1.722267 -1.121952,2.5439 -3.334252,7.252483 -4.693237,6.383449 -0.853316,-0.553021 -0.205428,-6.399249 -0.458262,-10.00179 0.584679,-0.26861 1.042942,-0.77423 1.153557,-1.453656 0.173823,-1.074442 -0.568878,-2.101482 -1.643423,-2.275289 -1.074546,-0.173807 -2.101686,0.568822 -2.275509,1.643264 -0.173824,1.074442 0.568877,2.101482 1.643423,2.275289 0.09481,2.986316 0.07901,9.464569 -1.453798,10.033391 -1.437995,0.537221 -3.745108,-3.002117 -5.941606,-6.968072 0.252834,-0.26861 0.44246,-0.600423 0.505669,-0.979638 0.173823,-1.074442 -0.568878,-2.101482 -1.643424,-2.275289 -1.074545,-0.173806 -2.101685,0.568823 -2.275508,1.643264 -0.173824,1.074442 0.568877,2.101482 1.643423,2.275289 0.268636,0.0474 0.537273,0.0316 0.790107,-0.0316 1.343182,2.212086 4.56682,7.710701 3.365857,9.274961 -0.553075,0.726829 -3.539681,0.616225 -5.989013,0.584623 -0.158022,-0.790031 -0.774305,-1.437856 -1.611819,-1.564261 -1.074546,-0.173806 -2.101685,0.568822 -2.275509,1.643264 -0.173823,1.074442 0.568877,2.101482 1.643423,2.275289 0.837514,0.126405 1.627621,-0.284411 2.022675,-0.979638 2.591552,0.979638 5.973211,2.701905 6.968746,4.518976 2.149091,3.871151 5.641365,17.238472 -1.011338,21.141224 -1.422193,0.837433 -2.907594,1.53266 -4.329787,2.101482 C 64.233454,70.131525 60.535752,68.504062 57.707168,65.486144 54.625749,62.183816 54.009466,58.881487 54.2623,56.005775 54.673156,51.565802 55.400054,47.520844 54.609947,42.606852 54.2623,40.457969 53.661819,38.166879 52.571471,35.559778 52.429251,35.212164 52.208021,34.832949 52.018395,34.453735 49.774534,30.124365 44.449211,23.993726 39.06068,18.542513 32.976854,12.396074 26.814017,7.1186678 24.886155,6.3444377 c -4.724841,-1.896074 -6.6369,2.4648961 -6.6369,2.4648961 -1.374787,1.6432642 -3.128825,6.5414552 -4.48781,12.7036952 -1.864653,8.45333 -2.986605,19.308353 -1.358984,27.587876 2.559947,12.972305 10.113373,18.455119 14.253535,21.583641 3.065616,2.322691 3.618691,3.618341 8.612169,8.295323 2.860188,2.670305 5.072488,12.972306 6.905537,16.527445 0.932327,1.817071 1.943664,3.649942 3.049814,5.467016 l -0.268636,4.18716 c 0,0 -0.316043,8.43753 -2.006873,11.80306 -1.690829,3.36553 -3.381659,4.58218 -3.381659,4.58218 0,0 -5.783585,-8.54813 -4.819654,-15.04219 0.44246,-2.95471 0.837514,-4.75598 1.137754,-5.90943 0.837514,-0.1264 1.532808,-0.742627 1.675028,-1.627461 0.173823,-1.074442 -0.568877,-2.101482 -1.643423,-2.275289 -1.074546,-0.173807 -2.101686,0.568822 -2.275509,1.643264 -0.142219,0.869034 0.331845,1.690666 1.090348,2.054076 -0.363449,1.86448 -0.995535,4.43998 -2.544146,4.39258 -1.959465,-0.0632 -4.709039,-7.742306 -5.8942,-11.218442 0.537273,-0.284411 0.948129,-0.77423 1.058744,-1.406255 0.173824,-1.074442 -0.568877,-2.101482 -1.643423,-2.275289 -1.074546,-0.173806 -2.101685,0.568823 -2.275509,1.643265 -0.173823,1.074441 0.568877,2.101481 1.643423,2.275288 0.06321,0.0158 0.110615,-0.0158 0.158022,0 1.264171,3.160123 4.140162,10.143993 2.733771,10.886623 -1.311578,0.69523 -6.352463,-5.277404 -9.181046,-8.532331 0.142219,-0.221209 0.252834,-0.474018 0.30024,-0.75843 0.173824,-1.074441 -0.568877,-2.101481 -1.643423,-2.275288 -1.074546,-0.173807 -2.101685,0.568822 -2.275509,1.643264 -0.173823,1.074442 0.568878,2.101482 1.643423,2.275289 0.316043,0.0474 0.616284,0 0.916525,-0.0948 2.275509,2.338491 8.627971,9.116956 7.632436,10.570606 -0.869118,1.27985 -5.81519,-0.1738 -8.833399,-1.34305 0.0158,-0.96384 -0.647888,-1.83287 -1.627621,-1.99088 -1.074546,-0.1738 -2.101685,0.56882 -2.275509,1.64327 -0.173824,1.07444 0.568877,2.10148 1.643423,2.27528 0.774305,0.12641 1.501204,-0.237 1.927862,-0.83743 2.907594,0.99544 8.359334,2.6071 8.122302,4.17136 -0.205428,1.40626 -1.959466,1.51686 -4.171766,2.21209 -0.300241,-0.44242 -0.758503,-0.75843 -1.311578,-0.85323 -1.074546,-0.17381 -2.101685,0.56882 -2.275509,1.64326 -0.173824,1.07444 0.568877,2.10148 1.643423,2.27529 1.074546,0.17381 2.101685,-0.56882 2.275509,-1.64326 0,-0.0316 0,-0.0632 0,-0.0948 2.465135,-0.60042 6.858131,-1.29565 9.323266,1.42206 3.09722,3.39713 9.21265,17.31747 12.467892,15.73741 2.844386,-1.37465 9.702517,-15.95862 12.862946,-19.65596 3.365857,2.5913 7.095163,4.66118 11.029897,6.30444 2.749573,1.15345 5.578157,2.11728 8.422544,2.92312 3.444867,0.99543 6.952943,1.80127 10.46102,2.55969 2.559947,0.56883 5.30952,1.10605 8.1065,1.73807 -3.571285,2.00668 -12.041235,6.88907 -14.048107,9.14856 -2.57575,2.89151 -0.963931,4.81919 1.121952,6.43085 1.311578,1.01124 0.58468,1.10604 14.616984,5.78303 0,0 -2.085883,1.12184 -5.783585,1.12184 -2.386124,0 -5.45174,-1.58006 -7.458612,-2.6545 0,-0.0316 0.0158,-0.0474 0.0316,-0.079 0.173824,-1.07444 -0.568877,-2.10148 -1.643423,-2.27529 -1.074546,-0.1738 -2.101685,0.56883 -2.275509,1.64327 -0.173823,1.07444 0.568877,2.10148 1.643423,2.27529 0.58468,0.0948 1.153557,-0.0948 1.580215,-0.45822 2.022674,1.04284 6.052221,2.82831 4.266579,3.79215 -1.69083,0.90063 -8.928212,1.12184 -12.783935,1.95927 -0.300241,-0.47402 -0.758503,-0.82163 -1.343183,-0.91643 -1.074546,-0.17381 -2.101685,0.56882 -2.275509,1.64326 -0.173823,1.07444 0.568878,2.10148 1.643424,2.27529 0.979733,0.15801 1.880455,-0.45822 2.164893,-1.37465 2.512541,-0.23701 11.677786,-0.90064 12.262465,0.26861 0.537273,1.05864 -7.743051,5.73562 -11.56717,8.92735 -0.126417,-0.0474 -0.237032,-0.11061 -0.379252,-0.14221 -1.074546,-0.17381 -2.101685,0.56882 -2.275509,1.64326 -0.173823,1.07445 0.568878,2.10149 1.643424,2.27529 1.074545,0.17381 2.101685,-0.56882 2.275508,-1.64326 0.04741,-0.26861 0.0316,-0.53722 -0.0316,-0.77423 2.607354,-1.86447 12.436288,-8.37433 13.890086,-7.20508 1.295775,1.02704 -2.13329,9.13275 -3.808317,13.41472 -0.853316,0.0948 -1.580215,0.72683 -1.738236,1.62746 -0.173824,1.07445 0.568877,2.10149 1.643423,2.27529 1.074546,0.17381 2.101685,-0.56882 2.275509,-1.64326 0.110615,-0.66363 -0.158022,-1.27985 -0.616284,-1.72227 1.485402,-2.98632 6.431473,-12.62469 7.44281,-12.46669 0.932327,0.14221 0.711097,7.04708 0.711097,9.52778 -0.458262,0.30021 -0.790107,0.75843 -0.88492,1.32725 -0.173824,1.07444 0.568877,2.10148 1.643423,2.27529 1.074546,0.1738 2.101685,-0.56883 2.275509,-1.64327 0.173823,-1.07444 -0.568878,-2.10148 -1.643423,-2.27529 -0.0316,0 -0.06321,0 -0.09481,0 0.66369,-4.50317 1.517006,-11.67665 2.243904,-12.16647 0.963931,-0.64783 10.287194,-5.29321 9.797324,-8.51653 -0.48986,-3.20753 -7.55342,-6.74687 -12.531095,-8.18472 -4.977676,-1.43786 13.495025,4.01336 17.998645,-2.73351 0.61628,-0.91643 1.13775,-1.70646 1.62762,-2.41749 1.35898,0.99544 2.63895,2.10148 3.76091,3.36553 3.49227,3.91855 6.81072,8.61133 9.02302,13.33572 2.32292,4.97719 4.31399,9.89118 7.3322,14.52077 3.7135,5.68822 8.20131,10.87082 13.3054,15.35819 2.52835,2.21209 5.21471,4.43998 8.0907,6.17804 4.59843,2.76511 10.16078,4.25037 15.51771,3.72895 0.47406,-0.0474 0.94813,-0.1106 1.42219,-0.20541 l 0.36345,-0.0632 0.37925,-0.079 0.64789,-0.15801 c 1.01134,-0.28441 1.97527,-0.58462 2.90759,-0.99544 3.76091,-1.61166 7.22158,-4.48737 9.44969,-8.20052 1.09034,-1.81707 1.94366,-3.90275 2.2597,-6.02003 0.41086,-2.08568 0.22123,-4.39257 -0.56887,-6.30445 z"
       style="fill:none;stroke:#2e7d32;stroke-width:4.15843;stroke-linecap:round;stroke-linejoin:round;stroke-miterlimit:10"
       id="path2" />
    <linearGradient
       id="SVGID_1_"
       gradientTransform="matrix(1.0061337,0.26156596,-0.26156566,1.0061349,13.304273,-6.0707312)"
       gradientUnits="userSpaceOnUse"
       x1="40.148499"
       x2="53.487499"
       y1="45.052502"
       y2="27.085699">
      <stop
         offset="0"
         style="stop-color:#13630F"
         id="stop4" />
      <stop
         offset="0.1391"
         style="stop-color:#2A7915"
         id="stop6" />
      <stop
         offset="0.457"
         style="stop-color:#59A623"
         id="stop8" />
      <stop
         offset="0.6158"
         style="stop-color:#6BB828"
         id="stop10" />
    </linearGradient>
    <path
       d="m 67.725771,31.388414 c 0.474064,0.821632 5.325322,8.295323 3.887327,10.159796 -0.742701,0.963838 -5.720376,0.442417 -8.090698,0.616224 -0.395054,0.0316 -0.458262,0.600424 -0.06321,0.695227 2.417729,0.632025 7.632436,2.828311 8.91241,5.151001 2.149092,3.871151 5.641366,17.238472 -1.011337,21.141224 -6.652703,3.918553 -14.348348,4.740185 -14.348348,4.740185 l -1.374786,5.941032 11.314335,1.785469 12.215059,-6.778464 c 0,0 2.133289,-3.096921 1.99107,-8.943149 -0.142219,-5.846228 -2.307113,-15.484603 0.09481,-20.050981 2.307113,-4.408372 6.842329,-7.315686 7.189976,-7.916109 0.347647,-0.584623 -0.316043,-0.805831 -0.647888,-0.442417 -1.706632,1.769669 -5.025082,3.934353 -6.431473,2.844111 -1.596017,-1.232448 2.512541,-8.184719 2.923397,-9.274962 0.410855,-1.090242 -0.300241,-1.516859 -0.774306,-0.50562 -0.474064,1.01124 -3.602889,8.943149 -5.325322,7.821305 -1.02714,-0.663626 0.110615,-8.911547 -0.726899,-11.81886 -0.458262,-1.611663 -0.963931,-0.284412 -0.916524,0.568822 0.04741,0.853233 0.52147,10.77602 -1.390589,11.471247 -1.517006,0.568822 -3.982141,-3.397133 -6.289254,-7.600096 -0.979733,-1.801271 -2.006872,-1.153445 -1.137754,0.395015 z"
       style="fill:url(#SVGID_1_);stroke-width:1.03961"
       id="path13" />
    <linearGradient
       id="SVGID_3_"
       gradientUnits="userSpaceOnUse"
       x1="32.071999"
       x2="16.120001"
       y1="58.505699"
       y2="79.371201"
       gradientTransform="matrix(1.0396092,0,0,1.0396103,3.363634,3.8323889)">
      <stop
         offset="0"
         style="stop-color:#13630F"
         id="stop15" />
      <stop
         offset="0.1391"
         style="stop-color:#2A7915"
         id="stop17" />
      <stop
         offset="0.457"
         style="stop-color:#59A623"
         id="stop19" />
      <stop
         offset="0.6158"
         style="stop-color:#6BB828"
         id="stop21" />
    </linearGradient>
    <path
       d="m 44.465013,105.19309 c 0,0 -0.316043,8.43753 -2.006872,11.80306 -1.69083,3.36553 -3.381659,4.58218 -3.381659,4.58218 0,0 -5.783585,-8.54813 -4.819655,-15.04219 0.711097,-4.83498 1.311579,-6.588853 1.627621,-7.489488 0.300241,-0.916436 -0.900722,-1.26405 -1.264171,-0.300212 -0.379252,0.963838 -0.742701,6.16224 -2.907595,6.08324 -2.370322,-0.079 -5.941606,-11.439649 -6.415671,-12.766901 -0.474064,-1.327251 -1.453797,-0.900635 -1.074546,0.363415 0.379252,1.264049 4.977676,11.376446 3.271044,12.292876 -1.485401,0.79003 -7.758853,-6.99967 -10.192383,-9.654173 -0.742701,-0.821633 -2.054279,-0.284412 -0.853316,1.121843 0,0 9.639309,9.62258 8.438346,11.37644 -1.042942,1.51686 -7.901073,-0.83743 -10.366208,-1.97507 -0.805909,-0.37922 -1.501203,0.23701 -0.505668,1.01124 0.995535,0.79003 10.113373,2.85991 9.813132,4.88239 -0.237032,1.56426 -2.401926,1.51686 -5.00928,2.49649 -1.69083,0.63203 -1.864653,1.81707 -0.316043,1.42206 1.54861,-0.39502 7.695645,-2.37009 10.792865,1.04284 3.09722,3.41293 9.21265,17.31748 12.467892,15.73741 3.255242,-1.58006 11.788401,-20.47759 13.969097,-20.5092 1.485401,-0.0158 -10.634844,-16.590643 -10.634844,-16.590643 z"
       style="fill:url(#SVGID_3_);stroke-width:1.03961"
       id="path24" />
    <linearGradient
       id="SVGID_4_"
       gradientUnits="userSpaceOnUse"
       x1="73.639603"
       x2="102.7529"
       y1="56.642799"
       y2="56.642799"
       gradientTransform="matrix(1.0396092,0,0,1.0396103,3.363634,3.8323889)">
      <stop
         offset="0"
         style="stop-color:#13630F"
         id="stop26" />
      <stop
         offset="0.1391"
         style="stop-color:#2A7915"
         id="stop28" />
      <stop
         offset="0.457"
         style="stop-color:#59A623"
         id="stop30" />
      <stop
         offset="0.6158"
         style="stop-color:#6BB828"
         id="stop32" />
    </linearGradient>
    <path
       d="m 113.12533,99.789281 c 0,0 5.29372,2.733509 5.46755,-0.805832 0.15802,-3.539338 -1.99107,-17.222671 2.84438,-18.597325 4.89867,-1.406255 19.64207,-0.837432 19.64207,-0.837432 0,0 3.04981,-1.121844 2.08588,-4.329369 -0.79011,-2.638703 -4.48781,-4.044958 -7.3796,-5.324808 -0.63209,-0.284411 -0.86912,-1.29565 0.12642,-0.995439 0.99553,0.300212 5.79938,1.185047 6.60529,-0.252809 0.66369,-1.200847 -0.52147,-10.444208 -0.94813,-12.04007 -0.42665,-1.595862 0.7427,-1.753868 1.12196,-0.474018 0.39505,1.27985 2.38612,11.866262 3.66609,11.534449 1.07455,-0.26861 3.17624,-11.739857 3.55549,-12.8301 0.39505,-1.090242 1.12195,-0.853233 1.04294,0.158006 -0.079,1.01124 -1.72244,12.514088 -0.26864,12.830101 1.13776,0.252809 5.94161,-4.708584 7.11097,-5.830428 1.16936,-1.121844 1.62762,-0.395015 1.04294,0.395016 -0.58468,0.77423 -6.92134,7.868706 -6.02062,9.259161 0.85332,1.327251 3.77671,1.864472 5.24631,1.406254 1.4696,-0.474018 1.01134,0.711028 0.47407,1.042841 -0.53728,0.347614 -7.3796,0.616224 -7.66404,6.14644 -0.15802,3.09692 -0.079,4.740184 -2.55995,6.92067 -3.27104,2.875712 -13.89009,-0.726829 -17.33495,-0.316013 -3.88733,0.474019 -5.32533,1.627464 -4.04535,9.022152 1.27997,7.394692 1.10615,17.159472 -1.94367,20.366992 -3.04981,3.20753 -4.01374,2.84411 -4.01374,2.84411 z"
       style="fill:url(#SVGID_4_);stroke-width:1.03961"
       id="path35" />
    <linearGradient
       id="SVGID_5_"
       gradientUnits="userSpaceOnUse"
       x1="66.259003"
       x2="53.122799"
       y1="81.1903"
       y2="107.7254"
       gradientTransform="matrix(1.0396092,0,0,1.0396103,3.363634,3.8323889)">
      <stop
         offset="0"
         style="stop-color:#134E0F"
         id="stop37" />
      <stop
         offset="0.2097"
         style="stop-color:#357719"
         id="stop39" />
      <stop
         offset="0.4804"
         style="stop-color:#5CA624"
         id="stop41" />
      <stop
         offset="0.6158"
         style="stop-color:#6BB828"
         id="stop43" />
    </linearGradient>
    <path
       d="m 94.24177,125.13347 c 0,0 -13.099978,7.15768 -15.659926,10.04919 -2.559947,2.89151 -0.963931,4.81919 1.121953,6.43085 1.311578,1.01124 0.584679,1.10604 14.616984,5.78303 0,0 -2.085884,1.12184 -5.783585,1.12184 -2.765376,0 -6.463078,-2.13308 -8.327731,-3.12852 -1.864653,-0.99544 -1.927862,0.23701 -0.647888,1.10604 1.279974,0.86904 7.189976,3.14432 5.104093,4.26617 -1.754038,0.94803 -9.512891,1.13764 -13.226395,2.05408 -2.338718,0.58462 -1.153557,1.72227 0.110615,1.58006 1.279973,-0.15801 12.151849,-1.05864 12.783935,0.22121 0.553075,1.10604 -8.454148,6.13064 -12.025432,9.32236 -2.164894,1.92768 0.110615,2.21209 1.10615,1.40626 0.995535,-0.82164 12.878748,-8.94315 14.490567,-7.6475 1.343182,1.07444 -2.465135,9.93859 -4.029547,13.99934 -0.869118,2.27529 0.932326,1.75387 1.406391,0.75843 0.474064,-0.99544 6.700109,-13.46212 7.853666,-13.28831 1.011337,0.158 0.66369,8.27952 0.711096,10.06499 0.04741,1.78547 0.995535,1.12184 1.153557,0.0948 0.66369,-4.36097 1.596017,-12.59309 2.370322,-13.11451 0.96393,-0.64782 10.287195,-5.29321 9.797325,-8.51653 -0.47406,-3.20753 -7.553421,-6.74686 -12.531096,-8.18472 -4.977676,-1.43786 13.495036,4.01336 17.998646,-2.73351 4.50361,-6.74686 5.29372,-7.7107 5.29372,-7.7107 z"
       style="fill:url(#SVGID_5_);stroke-width:1.03961"
       id="path46" />
    <circle
       cx="-34.000778"
       cy="149.49673"
       style="fill:#6bb828;stroke-width:1.03957"
       transform="matrix(0.15802102,-0.98743575,0.98744052,0.15799119,0,0)"
       id="ellipse48"
       rx="1.9750055"
       ry="1.9751871" />
    <circle
       cx="-19.261982"
       cy="71.714699"
       style="fill:#6bb828;stroke-width:1.03957"
       transform="matrix(0.15802102,-0.98743575,0.98744052,0.15799119,0,0)"
       id="ellipse50"
       rx="1.9750055"
       ry="1.9751871" />
    <circle
       cx="-91.285973"
       cy="31.431353"
       style="fill:#6bb828;stroke-width:1.03957"
       transform="matrix(0.15802102,-0.98743575,0.98744052,0.15799119,0,0)"
       id="ellipse52"
       rx="1.9750055"
       ry="1.9751871" />
    <circle
       cx="-102.61754"
       cy="30.65823"
       style="fill:#6bb828;stroke-width:1.03957"
       transform="matrix(0.15802102,-0.98743575,0.98744052,0.15799119,0,0)"
       id="ellipse54"
       rx="1.9750055"
       ry="1.9751871" />
    <circle
       cx="-110.5023"
       cy="35.901863"
       style="fill:#6bb828;stroke-width:1.03957"
       transform="matrix(0.15802102,-0.98743575,0.98744052,0.15799119,0,0)"
       id="ellipse56"
       rx="1.9750055"
       ry="1.9751871" />
    <circle
       cx="-131.12637"
       cy="101.14199"
       style="fill:#6bb828;stroke-width:1.03957"
       transform="matrix(0.15802102,-0.98743575,0.98744052,0.15799119,0,0)"
       id="ellipse58"
       rx="1.9750055"
       ry="1.9751871" />
    <circle
       cx="-140.73532"
       cy="93.652748"
       style="fill:#6bb828;stroke-width:1.03957"
       transform="matrix(0.15802102,-0.98743575,0.98744052,0.15799119,0,0)"
       id="ellipse60"
       rx="1.9750055"
       ry="1.9751871" />
    <circle
       cx="-151.90468"
       cy="97.333565"
       style="fill:#6bb828;stroke-width:1.03957"
       transform="matrix(0.15802102,-0.98743575,0.98744052,0.15799119,0,0)"
       id="ellipse62"
       rx="1.9750055"
       ry="1.9751871" />
    <circle
       cx="-157.53151"
       cy="110.61628"
       style="fill:#6bb828;stroke-width:1.03957"
       transform="matrix(0.15802102,-0.98743575,0.98744052,0.15799119,0,0)"
       id="ellipse64"
       rx="1.9750055"
       ry="1.9751871" />
    <circle
       cx="-153.20219"
       cy="120.62374"
       style="fill:#6bb828;stroke-width:1.03957"
       transform="matrix(0.15802102,-0.98743575,0.98744052,0.15799119,0,0)"
       id="ellipse66"
       rx="1.9750055"
       ry="1.9751871" />
    <circle
       cx="-91.888931"
       cy="50.247746"
       style="fill:#6bb828;stroke-width:1.03957"
       transform="matrix(0.15802102,-0.98743575,0.98744052,0.15799119,0,0)"
       id="ellipse68"
       rx="1.9750055"
       ry="1.9751871" />
    <circle
       cx="-14.139452"
       cy="80.151718"
       style="fill:#6bb828;stroke-width:1.03957"
       transform="matrix(0.15802102,-0.98743575,0.98744052,0.15799119,0,0)"
       id="ellipse70"
       rx="1.9750055"
       ry="1.9751871" />
    <circle
       cx="-16.914776"
       cy="88.009247"
       style="fill:#6bb828;stroke-width:1.03957"
       transform="matrix(0.15802102,-0.98743575,0.98744052,0.15799119,0,0)"
       id="ellipse72"
       rx="1.9750055"
       ry="1.9751871" />
    <circle
       cx="-23.303177"
       cy="93.231346"
       style="fill:#6bb828;stroke-width:1.03957"
       transform="matrix(0.15802102,-0.98743575,0.98744052,0.15799119,0,0)"
       id="ellipse74"
       rx="1.9750055"
       ry="1.9751871" />
    <circle
       cx="-31.917671"
       cy="69.624626"
       style="fill:#6bb828;stroke-width:1.03957"
       transform="matrix(0.15802102,-0.98743575,0.98744052,0.15799119,0,0)"
       id="ellipse76"
       rx="1.9750055"
       ry="1.9751871" />
    <circle
       cx="-86.778496"
       cy="39.086811"
       style="fill:#6bb828;stroke-width:1.03957"
       transform="matrix(0.15802102,-0.98743575,0.98744052,0.15799119,0,0)"
       id="ellipse78"
       rx="1.9750055"
       ry="1.9751871" />
    <circle
       cx="-30.336493"
       cy="157.09056"
       style="fill:#6bb828;stroke-width:1.03957"
       transform="matrix(0.15802102,-0.98743575,0.98744052,0.15799119,0,0)"
       id="ellipse80"
       rx="1.9750055"
       ry="1.9751871" />
    <circle
       cx="-36.280571"
       cy="166.66235"
       style="fill:#6bb828;stroke-width:1.03957"
       transform="matrix(0.15802102,-0.98743575,0.98744052,0.15799119,0,0)"
       id="ellipse82"
       rx="1.9750055"
       ry="1.9751871" />
    <circle
       cx="-47.168797"
       cy="168.48567"
       style="fill:#6bb828;stroke-width:1.03957"
       transform="matrix(0.15802102,-0.98743575,0.98744052,0.15799119,0,0)"
       id="ellipse84"
       rx="1.9750055"
       ry="1.9751871" />
    <circle
       cx="-46.667995"
       cy="144.6971"
       style="fill:#6bb828;stroke-width:1.03957"
       transform="matrix(0.15802102,-0.98743575,0.98744052,0.15799119,0,0)"
       id="ellipse86"
       rx="1.9750055"
       ry="1.9751871" />
    <linearGradient
       id="SVGID_6_"
       gradientUnits="userSpaceOnUse"
       x1="9.8049002"
       x2="109.6583"
       y1="1.4227999"
       y2="131.34891"
       gradientTransform="matrix(1.0396092,0,0,1.0396103,3.363634,3.8323889)">
      <stop
         offset="0.2397"
         style="stop-color:#4ABA00"
         id="stop88" />
      <stop
         offset="0.2683"
         style="stop-color:#49B802"
         id="stop90" />
      <stop
         offset="1"
         style="stop-color:#2E7D32"
         id="stop92" />
    </linearGradient>
    <path
       d="m 188.10651,168.80637 c -0.79011,-1.94347 -2.07008,-3.52354 -3.53968,-4.69278 -1.4538,-1.16925 -3.14463,-1.89608 -4.69324,-2.21209 -1.62762,-0.33181 -3.08141,-0.28441 -4.36139,-0.0632 -1.26417,0.22121 -2.33872,0.60042 -3.16043,0.99544 -0.83751,0.39501 -1.42219,0.80583 -1.83305,1.09024 -0.39505,0.30021 -0.60048,0.45822 -0.60048,0.45822 -0.25283,0.20541 -0.31604,0.56882 -0.12641,0.83743 0.18962,0.28441 0.58467,0.36342 0.90072,0.14221 0,0 0.18962,-0.12641 0.55307,-0.37922 0.37925,-0.22121 0.91653,-0.55302 1.67503,-0.85323 0.7427,-0.30021 1.70663,-0.58462 2.81278,-0.71103 1.10615,-0.1264 2.40193,-0.079 3.6661,0.26861 1.34318,0.34762 2.62316,1.02704 3.77671,2.05408 1.13776,1.01124 2.08589,2.37009 2.60736,3.91855 0.53727,1.56427 0.55307,3.20753 0.17382,4.9298 -0.37925,1.70646 -1.13775,3.31813 -2.1807,4.83499 -3.6819,5.3722 -10.60324,8.29532 -17.0031,6.85746 -0.30025,-0.0632 -0.60049,-0.158 -0.90073,-0.23701 -1.84885,-0.94803 -3.61869,-2.00667 -5.24631,-3.27072 -5.43594,-4.23457 -8.01169,-11.13944 -9.49709,-17.8547 -1.65922,-7.52109 -3.17623,-14.77358 -5.48334,-22.13666 -1.34318,-4.28197 -2.82859,-8.53234 -4.51942,-12.7037 -1.37478,-3.39713 -2.92339,-6.82586 -4.59842,-10.223 -2.11749,-4.29776 -4.4562,-8.54813 -7.09516,-12.59309 -3.88733,-6.00423 -8.34354,-11.59765 -13.49504,-16.274632 -1.99107,-1.817071 -4.15596,-3.523538 -6.41567,-5.135201 C 104.71859,82.440204 99.393269,79.548692 93.830914,77.573615 90.528266,76.388568 87.146607,75.519535 83.733343,75.045516 78.581844,74.318688 73.0985,73.260046 67.852188,71.55358 64.359914,70.415936 60.267158,68.788472 57.18574,65.486143 c -3.081418,-3.302328 -3.697702,-6.604657 -3.444868,-9.480369 0.410856,-4.439973 1.137755,-8.484931 0.347647,-13.398923 -0.347647,-2.148883 -0.948128,-4.439973 -2.038476,-7.047074 -0.14222,-0.347614 -0.36345,-0.726829 -0.553075,-1.106043 -2.243905,-4.329369 -7.569228,-10.460008 -12.957759,-15.911221 2.860188,7.631698 3.492274,15.64261 -0.505669,23.669323 0,1.659065 -4.977676,4.977194 -9.955351,3.318129 C 17.933212,41.469207 13.998478,31.815031 13.224172,21.52883 c -1.864653,8.453329 -2.986605,19.308352 -1.358984,27.587875 2.559948,12.972306 10.113373,18.45512 14.253535,21.583642 3.065616,2.32269 3.618691,3.618341 8.612169,8.295323 2.860188,2.670304 5.072488,12.972306 6.905537,16.527444 2.559948,4.961396 5.688772,10.222996 9.734122,14.252156 0.600481,0.60042 1.216765,1.16925 1.864653,1.70647 3.681899,3.09692 7.916874,5.46701 12.373079,7.33148 2.749573,1.15345 5.578157,2.11728 8.422543,2.92312 3.444868,0.99544 6.952944,1.80127 10.46102,2.5597 3.318451,0.72682 6.937142,1.43785 10.60324,2.29109 5.467544,1.29565 11.029894,2.95471 15.786344,5.60921 2.67056,1.48526 5.10409,3.28653 7.11096,5.53022 3.49228,3.91855 6.81073,8.61134 9.02303,13.33572 2.32291,4.97719 4.31398,9.89119 7.33219,14.52077 3.71351,5.68822 8.20132,10.87082 13.30541,15.35819 2.52834,2.21209 5.21471,4.43998 8.0907,6.17805 4.59842,2.7651 10.16078,4.25036 15.5177,3.72894 0.47407,-0.0474 0.94813,-0.1106 1.4222,-0.20541 l 0.36345,-0.0632 0.37925,-0.079 0.64789,-0.15801 c 1.01133,-0.28441 1.97526,-0.58462 2.90759,-0.99544 3.76091,-1.61166 7.22158,-4.48737 9.44968,-8.20052 1.09035,-1.81707 1.94367,-3.90275 2.25971,-6.02003 0.39505,-2.10148 0.20543,-4.40837 -0.58468,-6.32025 z"
       style="fill:url(#SVGID_6_);stroke-width:1.03961"
       id="path95" />
    <path
       d="m 28.109793,45.529965 c 4.977676,1.659065 9.955351,-1.659064 9.955351,-3.318129 4.013745,-8.010912 3.365857,-16.021825 0.505669,-23.669323 C 32.486987,12.396074 26.324151,7.1186678 24.396289,6.3444377 19.671448,4.4483637 17.759388,8.8093338 17.759388,8.8093338 16.384601,10.452598 14.630563,15.350789 13.271579,21.513029 c 0.758503,10.317802 4.693237,19.956178 14.838214,24.016936 z"
       style="fill:#aed581;stroke-width:1.03961"
       id="path97" />
    <g
       id="g107"
       transform="matrix(1.5802145,0,0,1.5800616,-3.2416626,-2.8989227)"
       style="stroke-width:0.657923">
      <g
         id="g103"
         style="stroke-width:0.657923">
        <circle
           cx="10.44"
           cy="25.719999"
           r="5.5799999"
           style="fill:#ffffff;stroke-width:0.657923"
           id="circle99" />
        <path
           d="m 10.44,20.82 c 2.71,0 4.9,2.19 4.9,4.9 0,2.71 -2.19,4.9 -4.9,4.9 -2.71,0 -4.9,-2.19 -4.9,-4.9 0,-2.71 2.2,-4.9 4.9,-4.9 m 0,-1.37 c -3.45,0 -6.26,2.81 -6.26,6.26 0,3.45 2.81,6.26 6.26,6.26 3.45,0 6.26,-2.81 6.26,-6.26 0,-3.45 -2.8,-6.26 -6.26,-6.26 z"
           style="fill:#b3b3b3;stroke-width:0.657923"
           id="path101" />
      </g>
      <circle
         cx="9.0900002"
         cy="23.42"
         transform="matrix(0.5421,-0.8403,0.8403,0.5421,-15.5186,18.3611)"
         id="ellipse105"
         r="2.3900001"
         style="stroke-width:0.657923" />
    </g>
    <g
       id="g117"
       transform="matrix(1.5802145,0,0,1.5800616,-3.2416626,-2.8989227)"
       style="stroke-width:0.657923">
      <g
         id="g113"
         style="stroke-width:0.657923">
        <circle
           cx="29.52"
           cy="18.17"
           r="5.5799999"
           style="fill:#ffffff;stroke-width:0.657923"
           id="circle109" />
        <path
           d="m 29.51,13.27 c 2.71,0 4.9,2.19 4.9,4.9 0,2.71 -2.19,4.9 -4.9,4.9 -2.71,0 -4.9,-2.19 -4.9,-4.9 0,-2.71 2.2,-4.9 4.9,-4.9 m 0,-1.36 c -3.45,0 -6.26,2.81 -6.26,6.26 0,3.45 2.81,6.26 6.26,6.26 3.45,0 6.26,-2.81 6.26,-6.26 0,-3.45 -2.8,-6.26 -6.26,-6.26 z"
           style="fill:#b3b3b3;stroke-width:0.657923"
           id="path111" />
      </g>
      <circle
         cx="29.82"
         cy="15.77"
         transform="matrix(0.5421,-0.8403,0.8403,0.5421,0.4042,32.274)"
         id="ellipse115"
         r="2.3900001"
         style="stroke-width:0.657923" />
    </g>
    <linearGradient
       id="SVGID_7_"
       gradientUnits="userSpaceOnUse"
       x1="25.1861"
       x2="94.459396"
       y1="33.244598"
       y2="106.7163"
       gradientTransform="matrix(1.0396092,0,0,1.0396103,3.363634,3.8323889)">
      <stop
         offset="0.0169"
         style="stop-color:#C5E1A5"
         id="stop119" />
      <stop
         offset="0.1983"
         style="stop-color:#C1DEA1"
         id="stop121" />
      <stop
         offset="0.3788"
         style="stop-color:#B6D595"
         id="stop123" />
      <stop
         offset="0.5591"
         style="stop-color:#A3C781"
         id="stop125" />
      <stop
         offset="0.7392"
         style="stop-color:#88B265"
         id="stop127" />
      <stop
         offset="0.9176"
         style="stop-color:#669841"
         id="stop129" />
      <stop
         offset="0.9969"
         style="stop-color:#558B2F"
         id="stop131" />
    </linearGradient>
    <path
       d="m 39.06068,53.556678 c 0,0 0.173823,0.632025 0.52147,1.80127 0.331845,1.232449 0.853316,2.749308 1.564413,4.771787 0.711096,2.022478 1.722434,4.37677 3.144627,6.889068 1.422193,2.512298 3.381659,5.056197 5.878397,7.631698 2.496739,2.591301 5.688773,5.103599 9.149442,7.773903 1.722434,1.29565 3.618692,2.749307 5.420136,3.965954 l 1.453798,1.01124 1.40639,0.884834 c 0.916525,0.600424 1.896258,1.185046 2.939199,1.769669 4.04535,2.370093 8.46995,4.518976 13.068374,6.620458 4.614227,2.085682 9.402277,4.139761 14.174524,6.399251 4.77225,2.24369 9.5445,4.67698 14.06391,7.48949 l 0.85332,0.52142 0.47406,0.30021 0.39505,0.26861 c 0.53728,0.37922 1.02714,0.67943 1.59602,1.12185 1.13775,0.83743 2.1807,1.67486 3.20784,2.5281 2.02267,1.72226 3.88732,3.57093 5.59395,5.48281 6.81073,7.6949 11.10891,16.14823 14.09552,23.49552 2.9392,7.39468 4.59842,13.77813 5.59396,18.24971 0.50567,2.24368 0.82171,4.01335 1.02714,5.2142 0.20542,1.21665 0.31604,1.84867 0.31604,1.84867 0.0316,0.14221 -0.079,0.28441 -0.22123,0.31601 -0.12642,0.0158 -0.25283,-0.0632 -0.30024,-0.1738 0,0 -0.85332,-2.4649 -2.46514,-6.71526 -1.64342,-4.23457 -4.01374,-10.2704 -7.60083,-17.06467 -1.75404,-3.41293 -3.83992,-6.99967 -6.30505,-10.58641 -2.41773,-3.61834 -5.27792,-7.15768 -8.53316,-10.46001 -1.62762,-1.65906 -3.36586,-3.23913 -5.23051,-4.67698 -0.93233,-0.72683 -1.89626,-1.42206 -2.84439,-2.03828 -0.44246,-0.31601 -1.04294,-0.66363 -1.56441,-0.99544 l -0.41086,-0.25281 -0.34764,-0.20541 -0.80591,-0.45822 c -4.25078,-2.49649 -8.833402,-4.67698 -13.542441,-6.71526 -9.418078,-4.06076 -19.278617,-7.8371 -28.14362,-12.830098 -1.10615,-0.600424 -2.196498,-1.264049 -3.286846,-1.959277 l -1.611819,-1.02704 -1.453797,-1.011239 C 58.244484,91.320151 56.490446,89.977098 54.625792,88.602445 50.975497,85.853137 47.578036,83.024827 44.670441,79.975308 41.747044,76.94159 39.471535,73.639261 37.859717,70.589742 36.247898,67.524423 35.173352,64.743514 34.446453,62.436624 33.703752,60.145535 33.24549,58.21786 32.992656,57.080216 32.724019,55.895169 32.5818,55.247344 32.5818,55.247344 c -0.410856,-1.785469 0.711097,-3.570939 2.496739,-3.965954 1.785642,-0.442418 3.492274,0.600423 3.982141,2.275288 z"
       style="fill:url(#SVGID_7_);stroke-width:1.03961"
       id="path134" />
  </g>
  <g
     id="Layer_2"
     style="display:none"
     transform="translate(-3.3757574,-3.9050439)">
    <g
       style="display:inline"
       id="g383">
      <g
         style="opacity:0.6"
         id="g165">
        <circle
           cx="64"
           cy="64"
           r="28"
           style="opacity:0.61;fill:none;stroke:#000000;stroke-width:0.2625;stroke-miterlimit:10"
           id="circle137" />
        <line
           style="opacity:0.61;fill:none;stroke:#000000;stroke-width:0.25;stroke-miterlimit:10"
           x1="84"
           x2="84"
           y1="0"
           y2="128"
           id="line139" />
        <line
           style="opacity:0.61;fill:none;stroke:#000000;stroke-width:0.25;stroke-miterlimit:10"
           x1="44"
           x2="44"
           y1="0"
           y2="128"
           id="line141" />
        <line
           style="opacity:0.61;fill:none;stroke:#000000;stroke-width:0.25;stroke-miterlimit:10"
           x1="64"
           x2="64"
           y1="0"
           y2="128"
           id="line143" />
        <line
           style="opacity:0.61;fill:none;stroke:#000000;stroke-width:0.25;stroke-miterlimit:10"
           x1="128"
           x2="0"
           y1="64"
           y2="64"
           id="line145" />
        <line
           style="opacity:0.61;fill:none;stroke:#000000;stroke-width:0.25;stroke-miterlimit:10"
           x1="128"
           x2="0"
           y1="44"
           y2="44"
           id="line147" />
        <line
           style="opacity:0.61;fill:none;stroke:#000000;stroke-width:0.25;stroke-miterlimit:10"
           x1="128"
           x2="0"
           y1="83.75"
           y2="83.75"
           id="line149" />
        <line
           style="opacity:0.61;fill:none;stroke:#000000;stroke-width:0.25;stroke-miterlimit:10"
           x1="128"
           x2="0"
           y1="128"
           y2="0"
           id="line151" />
        <line
           style="opacity:0.61;fill:none;stroke:#000000;stroke-width:0.25;stroke-miterlimit:10"
           x1="0"
           x2="128"
           y1="128"
           y2="0"
           id="line153" />
        <g
           style="opacity:0.61"
           id="g157">
          <path
             d="m 64,4.26 c 32.94,0 59.74,26.8 59.74,59.74 0,32.94 -26.8,59.74 -59.74,59.74 C 31.06,123.74 4.26,96.94 4.26,64 4.26,31.06 31.06,4.26 64,4.26 M 64,4 C 30.86,4 4,30.86 4,64 4,97.14 30.86,124 64,124 97.14,124 124,97.14 124,64 124,30.86 97.14,4 64,4 Z"
             id="path155" />
        </g>
        <path
           d="M 107.97,115.97 H 20.03 c -4.42,0 -8.03,-3.61 -8.03,-8.03 V 20.03 C 12,15.61 15.61,12 20.03,12 h 87.94 c 4.42,0 8.03,3.61 8.03,8.03 v 87.91 c 0,4.42 -3.61,8.03 -8.03,8.03 z"
           style="opacity:0.61;fill:none;stroke:#000000;stroke-width:0.2578;stroke-miterlimit:10"
           id="path159" />
        <path
           d="M 100,124 H 28 c -4.4,0 -8,-3.6 -8,-8 V 12 c 0,-4.4 3.6,-8 8,-8 h 72 c 4.4,0 8,3.6 8,8 v 104 c 0,4.4 -3.6,8 -8,8 z"
           style="opacity:0.61;fill:none;stroke:#000000;stroke-width:0.2628;stroke-miterlimit:10"
           id="path161" />
        <path
           d="M 113.77,108 H 14.23 C 8.6,108 4,103.4 4,97.77 V 30.28 C 4,24.65 8.6,20.05 14.23,20.05 h 99.54 c 5.63,0 10.23,4.6 10.23,10.23 v 67.48 c 0,5.64 -4.6,10.24 -10.23,10.24 z"
           style="opacity:0.61;fill:none;stroke:#000000;stroke-width:0.2627;stroke-miterlimit:10"
           id="path163" />
      </g>
      <g
         id="g381">
        <g
           style="opacity:0.2"
           id="g369">
          <defs
             id="defs168">
            <rect
               id="SVGID_2_"
               height="128"
               style="opacity:0.2"
               width="128"
               x="0"
               y="0" />
          </defs>
          <clipPath
             id="SVGID_8_">
            <use
               style="overflow:visible"
               xlink:href="#SVGID_2_"
               id="use170"
               x="0"
               y="0"
               width="100%"
               height="100%" />
          </clipPath>
          <g
             clip-path="url(#SVGID_8_)"
             id="g367">
            <g
               id="g267">
              <line
                 style="fill:none;stroke:#000000;stroke-width:0.25;stroke-miterlimit:10"
                 x1="-28"
                 x2="-28"
                 y1="160"
                 y2="-32"
                 id="line173" />
              <line
                 style="fill:none;stroke:#000000;stroke-width:0.25;stroke-miterlimit:10"
                 x1="-24"
                 x2="-24"
                 y1="160"
                 y2="-32"
                 id="line175" />
              <line
                 style="fill:none;stroke:#000000;stroke-width:0.25;stroke-miterlimit:10"
                 x1="-20"
                 x2="-20"
                 y1="160"
                 y2="-32"
                 id="line177" />
              <line
                 style="fill:none;stroke:#000000;stroke-width:0.25;stroke-miterlimit:10"
                 x1="-16"
                 x2="-16"
                 y1="160"
                 y2="-32"
                 id="line179" />
              <line
                 style="fill:none;stroke:#000000;stroke-width:0.25;stroke-miterlimit:10"
                 x1="-12"
                 x2="-12"
                 y1="160"
                 y2="-32"
                 id="line181" />
              <line
                 style="fill:none;stroke:#000000;stroke-width:0.25;stroke-miterlimit:10"
                 x1="-8"
                 x2="-8"
                 y1="160"
                 y2="-32"
                 id="line183" />
              <line
                 style="fill:none;stroke:#000000;stroke-width:0.25;stroke-miterlimit:10"
                 x1="-4"
                 x2="-4"
                 y1="160"
                 y2="-32"
                 id="line185" />
              <line
                 style="fill:none;stroke:#000000;stroke-width:0.25;stroke-miterlimit:10"
                 x1="0"
                 x2="0"
                 y1="160"
                 y2="-32"
                 id="line187" />
              <line
                 style="fill:none;stroke:#000000;stroke-width:0.25;stroke-miterlimit:10"
                 x1="4"
                 x2="4"
                 y1="160"
                 y2="-32"
                 id="line189" />
              <line
                 style="fill:none;stroke:#000000;stroke-width:0.25;stroke-miterlimit:10"
                 x1="8"
                 x2="8"
                 y1="160"
                 y2="-32"
                 id="line191" />
              <line
                 style="fill:none;stroke:#000000;stroke-width:0.25;stroke-miterlimit:10"
                 x1="12"
                 x2="12"
                 y1="160"
                 y2="-32"
                 id="line193" />
              <line
                 style="fill:none;stroke:#000000;stroke-width:0.25;stroke-miterlimit:10"
                 x1="16"
                 x2="16"
                 y1="160"
                 y2="-32"
                 id="line195" />
              <line
                 style="fill:none;stroke:#000000;stroke-width:0.25;stroke-miterlimit:10"
                 x1="20"
                 x2="20"
                 y1="160"
                 y2="-32"
                 id="line197" />
              <line
                 style="fill:none;stroke:#000000;stroke-width:0.25;stroke-miterlimit:10"
                 x1="24"
                 x2="24"
                 y1="160"
                 y2="-32"
                 id="line199" />
              <line
                 style="fill:none;stroke:#000000;stroke-width:0.25;stroke-miterlimit:10"
                 x1="28"
                 x2="28"
                 y1="160"
                 y2="-32"
                 id="line201" />
              <line
                 style="fill:none;stroke:#000000;stroke-width:0.25;stroke-miterlimit:10"
                 x1="32"
                 x2="32"
                 y1="160"
                 y2="-32"
                 id="line203" />
              <line
                 style="fill:none;stroke:#000000;stroke-width:0.25;stroke-miterlimit:10"
                 x1="36"
                 x2="36"
                 y1="160"
                 y2="-32"
                 id="line205" />
              <line
                 style="fill:none;stroke:#000000;stroke-width:0.25;stroke-miterlimit:10"
                 x1="40"
                 x2="40"
                 y1="160"
                 y2="-32"
                 id="line207" />
              <line
                 style="fill:none;stroke:#000000;stroke-width:0.25;stroke-miterlimit:10"
                 x1="44"
                 x2="44"
                 y1="160"
                 y2="-32"
                 id="line209" />
              <line
                 style="fill:none;stroke:#000000;stroke-width:0.25;stroke-miterlimit:10"
                 x1="48"
                 x2="48"
                 y1="160"
                 y2="-32"
                 id="line211" />
              <line
                 style="fill:none;stroke:#000000;stroke-width:0.25;stroke-miterlimit:10"
                 x1="52"
                 x2="52"
                 y1="160"
                 y2="-32"
                 id="line213" />
              <line
                 style="fill:none;stroke:#000000;stroke-width:0.25;stroke-miterlimit:10"
                 x1="56"
                 x2="56"
                 y1="160"
                 y2="-32"
                 id="line215" />
              <line
                 style="fill:none;stroke:#000000;stroke-width:0.25;stroke-miterlimit:10"
                 x1="60"
                 x2="60"
                 y1="160"
                 y2="-32"
                 id="line217" />
              <line
                 style="fill:none;stroke:#000000;stroke-width:0.25;stroke-miterlimit:10"
                 x1="64"
                 x2="64"
                 y1="160"
                 y2="-32"
                 id="line219" />
              <line
                 style="fill:none;stroke:#000000;stroke-width:0.25;stroke-miterlimit:10"
                 x1="68"
                 x2="68"
                 y1="160"
                 y2="-32"
                 id="line221" />
              <line
                 style="fill:none;stroke:#000000;stroke-width:0.25;stroke-miterlimit:10"
                 x1="72"
                 x2="72"
                 y1="160"
                 y2="-32"
                 id="line223" />
              <line
                 style="fill:none;stroke:#000000;stroke-width:0.25;stroke-miterlimit:10"
                 x1="76"
                 x2="76"
                 y1="160"
                 y2="-32"
                 id="line225" />
              <line
                 style="fill:none;stroke:#000000;stroke-width:0.25;stroke-miterlimit:10"
                 x1="80"
                 x2="80"
                 y1="160"
                 y2="-32"
                 id="line227" />
              <line
                 style="fill:none;stroke:#000000;stroke-width:0.25;stroke-miterlimit:10"
                 x1="84"
                 x2="84"
                 y1="160"
                 y2="-32"
                 id="line229" />
              <line
                 style="fill:none;stroke:#000000;stroke-width:0.25;stroke-miterlimit:10"
                 x1="88"
                 x2="88"
                 y1="160"
                 y2="-32"
                 id="line231" />
              <line
                 style="fill:none;stroke:#000000;stroke-width:0.25;stroke-miterlimit:10"
                 x1="92"
                 x2="92"
                 y1="160"
                 y2="-32"
                 id="line233" />
              <line
                 style="fill:none;stroke:#000000;stroke-width:0.25;stroke-miterlimit:10"
                 x1="96"
                 x2="96"
                 y1="160"
                 y2="-32"
                 id="line235" />
              <line
                 style="fill:none;stroke:#000000;stroke-width:0.25;stroke-miterlimit:10"
                 x1="100"
                 x2="100"
                 y1="160"
                 y2="-32"
                 id="line237" />
              <line
                 style="fill:none;stroke:#000000;stroke-width:0.25;stroke-miterlimit:10"
                 x1="104"
                 x2="104"
                 y1="160"
                 y2="-32"
                 id="line239" />
              <line
                 style="fill:none;stroke:#000000;stroke-width:0.25;stroke-miterlimit:10"
                 x1="108"
                 x2="108"
                 y1="160"
                 y2="-32"
                 id="line241" />
              <line
                 style="fill:none;stroke:#000000;stroke-width:0.25;stroke-miterlimit:10"
                 x1="112"
                 x2="112"
                 y1="160"
                 y2="-32"
                 id="line243" />
              <line
                 style="fill:none;stroke:#000000;stroke-width:0.25;stroke-miterlimit:10"
                 x1="116"
                 x2="116"
                 y1="160"
                 y2="-32"
                 id="line245" />
              <line
                 style="fill:none;stroke:#000000;stroke-width:0.25;stroke-miterlimit:10"
                 x1="120"
                 x2="120"
                 y1="160"
                 y2="-32"
                 id="line247" />
              <line
                 style="fill:none;stroke:#000000;stroke-width:0.25;stroke-miterlimit:10"
                 x1="124"
                 x2="124"
                 y1="160"
                 y2="-32"
                 id="line249" />
              <line
                 style="fill:none;stroke:#000000;stroke-width:0.25;stroke-miterlimit:10"
                 x1="128"
                 x2="128"
                 y1="160"
                 y2="-32"
                 id="line251" />
              <line
                 style="fill:none;stroke:#000000;stroke-width:0.25;stroke-miterlimit:10"
                 x1="132"
                 x2="132"
                 y1="160"
                 y2="-32"
                 id="line253" />
              <line
                 style="fill:none;stroke:#000000;stroke-width:0.25;stroke-miterlimit:10"
                 x1="136"
                 x2="136"
                 y1="160"
                 y2="-32"
                 id="line255" />
              <line
                 style="fill:none;stroke:#000000;stroke-width:0.25;stroke-miterlimit:10"
                 x1="137"
                 x2="137"
                 y1="166.05"
                 y2="-25.950001"
                 id="line257" />
              <line
                 style="fill:none;stroke:#000000;stroke-width:0.25;stroke-miterlimit:10"
                 x1="144"
                 x2="144"
                 y1="160"
                 y2="-32"
                 id="line259" />
              <line
                 style="fill:none;stroke:#000000;stroke-width:0.25;stroke-miterlimit:10"
                 x1="148"
                 x2="148"
                 y1="160"
                 y2="-32"
                 id="line261" />
              <line
                 style="fill:none;stroke:#000000;stroke-width:0.25;stroke-miterlimit:10"
                 x1="152"
                 x2="152"
                 y1="160"
                 y2="-32"
                 id="line263" />
              <line
                 style="fill:none;stroke:#000000;stroke-width:0.25;stroke-miterlimit:10"
                 x1="156"
                 x2="156"
                 y1="160"
                 y2="-32"
                 id="line265" />
            </g>
            <g
               id="g363">
              <line
                 style="fill:none;stroke:#000000;stroke-width:0.25;stroke-miterlimit:10"
                 x1="-32"
                 x2="160"
                 y1="-28"
                 y2="-28"
                 id="line269" />
              <line
                 style="fill:none;stroke:#000000;stroke-width:0.25;stroke-miterlimit:10"
                 x1="-32"
                 x2="160"
                 y1="-24"
                 y2="-24"
                 id="line271" />
              <line
                 style="fill:none;stroke:#000000;stroke-width:0.25;stroke-miterlimit:10"
                 x1="-32"
                 x2="160"
                 y1="-20"
                 y2="-20"
                 id="line273" />
              <line
                 style="fill:none;stroke:#000000;stroke-width:0.25;stroke-miterlimit:10"
                 x1="-32"
                 x2="160"
                 y1="-16"
                 y2="-16"
                 id="line275" />
              <line
                 style="fill:none;stroke:#000000;stroke-width:0.25;stroke-miterlimit:10"
                 x1="-32"
                 x2="160"
                 y1="-12"
                 y2="-12"
                 id="line277" />
              <line
                 style="fill:none;stroke:#000000;stroke-width:0.25;stroke-miterlimit:10"
                 x1="-32"
                 x2="160"
                 y1="-8"
                 y2="-8"
                 id="line279" />
              <line
                 style="fill:none;stroke:#000000;stroke-width:0.25;stroke-miterlimit:10"
                 x1="-32"
                 x2="160"
                 y1="-4"
                 y2="-4"
                 id="line281" />
              <line
                 style="fill:none;stroke:#000000;stroke-width:0.25;stroke-miterlimit:10"
                 x1="-32"
                 x2="160"
                 y1="0"
                 y2="0"
                 id="line283" />
              <line
                 style="fill:none;stroke:#000000;stroke-width:0.25;stroke-miterlimit:10"
                 x1="-32"
                 x2="160"
                 y1="4"
                 y2="4"
                 id="line285" />
              <line
                 style="fill:none;stroke:#000000;stroke-width:0.25;stroke-miterlimit:10"
                 x1="-32"
                 x2="160"
                 y1="8"
                 y2="8"
                 id="line287" />
              <line
                 style="fill:none;stroke:#000000;stroke-width:0.25;stroke-miterlimit:10"
                 x1="-32"
                 x2="160"
                 y1="12"
                 y2="12"
                 id="line289" />
              <line
                 style="fill:none;stroke:#000000;stroke-width:0.25;stroke-miterlimit:10"
                 x1="-32"
                 x2="160"
                 y1="16"
                 y2="16"
                 id="line291" />
              <line
                 style="fill:none;stroke:#000000;stroke-width:0.25;stroke-miterlimit:10"
                 x1="-32"
                 x2="160"
                 y1="20"
                 y2="20"
                 id="line293" />
              <line
                 style="fill:none;stroke:#000000;stroke-width:0.25;stroke-miterlimit:10"
                 x1="-32"
                 x2="160"
                 y1="24"
                 y2="24"
                 id="line295" />
              <line
                 style="fill:none;stroke:#000000;stroke-width:0.25;stroke-miterlimit:10"
                 x1="-32"
                 x2="160"
                 y1="28"
                 y2="28"
                 id="line297" />
              <line
                 style="fill:none;stroke:#000000;stroke-width:0.25;stroke-miterlimit:10"
                 x1="-32"
                 x2="160"
                 y1="32"
                 y2="32"
                 id="line299" />
              <line
                 style="fill:none;stroke:#000000;stroke-width:0.25;stroke-miterlimit:10"
                 x1="-32"
                 x2="160"
                 y1="36"
                 y2="36"
                 id="line301" />
              <line
                 style="fill:none;stroke:#000000;stroke-width:0.25;stroke-miterlimit:10"
                 x1="-32"
                 x2="160"
                 y1="40"
                 y2="40"
                 id="line303" />
              <line
                 style="fill:none;stroke:#000000;stroke-width:0.25;stroke-miterlimit:10"
                 x1="-32"
                 x2="160"
                 y1="44"
                 y2="44"
                 id="line305" />
              <line
                 style="fill:none;stroke:#000000;stroke-width:0.25;stroke-miterlimit:10"
                 x1="-32"
                 x2="160"
                 y1="48"
                 y2="48"
                 id="line307" />
              <line
                 style="fill:none;stroke:#000000;stroke-width:0.25;stroke-miterlimit:10"
                 x1="-32"
                 x2="160"
                 y1="52"
                 y2="52"
                 id="line309" />
              <line
                 style="fill:none;stroke:#000000;stroke-width:0.25;stroke-miterlimit:10"
                 x1="-32"
                 x2="160"
                 y1="56"
                 y2="56"
                 id="line311" />
              <line
                 style="fill:none;stroke:#000000;stroke-width:0.25;stroke-miterlimit:10"
                 x1="-32"
                 x2="160"
                 y1="60"
                 y2="60"
                 id="line313" />
              <line
                 style="fill:none;stroke:#000000;stroke-width:0.25;stroke-miterlimit:10"
                 x1="-32"
                 x2="160"
                 y1="64"
                 y2="64"
                 id="line315" />
              <line
                 style="fill:none;stroke:#000000;stroke-width:0.25;stroke-miterlimit:10"
                 x1="-32"
                 x2="160"
                 y1="68"
                 y2="68"
                 id="line317" />
              <line
                 style="fill:none;stroke:#000000;stroke-width:0.25;stroke-miterlimit:10"
                 x1="-32"
                 x2="160"
                 y1="72"
                 y2="72"
                 id="line319" />
              <line
                 style="fill:none;stroke:#000000;stroke-width:0.25;stroke-miterlimit:10"
                 x1="-32"
                 x2="160"
                 y1="76"
                 y2="76"
                 id="line321" />
              <line
                 style="fill:none;stroke:#000000;stroke-width:0.25;stroke-miterlimit:10"
                 x1="-32"
                 x2="160"
                 y1="80"
                 y2="80"
                 id="line323" />
              <line
                 style="fill:none;stroke:#000000;stroke-width:0.25;stroke-miterlimit:10"
                 x1="-32"
                 x2="160"
                 y1="84"
                 y2="84"
                 id="line325" />
              <line
                 style="fill:none;stroke:#000000;stroke-width:0.25;stroke-miterlimit:10"
                 x1="-32"
                 x2="160"
                 y1="88"
                 y2="88"
                 id="line327" />
              <line
                 style="fill:none;stroke:#000000;stroke-width:0.25;stroke-miterlimit:10"
                 x1="-32"
                 x2="160"
                 y1="92"
                 y2="92"
                 id="line329" />
              <line
                 style="fill:none;stroke:#000000;stroke-width:0.25;stroke-miterlimit:10"
                 x1="-32"
                 x2="160"
                 y1="96"
                 y2="96"
                 id="line331" />
              <line
                 style="fill:none;stroke:#000000;stroke-width:0.25;stroke-miterlimit:10"
                 x1="-32"
                 x2="160"
                 y1="100"
                 y2="100"
                 id="line333" />
              <line
                 style="fill:none;stroke:#000000;stroke-width:0.25;stroke-miterlimit:10"
                 x1="-32"
                 x2="160"
                 y1="104"
                 y2="104"
                 id="line335" />
              <line
                 style="fill:none;stroke:#000000;stroke-width:0.25;stroke-miterlimit:10"
                 x1="-32"
                 x2="160"
                 y1="108"
                 y2="108"
                 id="line337" />
              <line
                 style="fill:none;stroke:#000000;stroke-width:0.25;stroke-miterlimit:10"
                 x1="-32"
                 x2="160"
                 y1="112"
                 y2="112"
                 id="line339" />
              <line
                 style="fill:none;stroke:#000000;stroke-width:0.25;stroke-miterlimit:10"
                 x1="-32"
                 x2="160"
                 y1="116"
                 y2="116"
                 id="line341" />
              <line
                 style="fill:none;stroke:#000000;stroke-width:0.25;stroke-miterlimit:10"
                 x1="-32"
                 x2="160"
                 y1="120"
                 y2="120"
                 id="line343" />
              <line
                 style="fill:none;stroke:#000000;stroke-width:0.25;stroke-miterlimit:10"
                 x1="-32"
                 x2="160"
                 y1="124"
                 y2="124"
                 id="line345" />
              <line
                 style="fill:none;stroke:#000000;stroke-width:0.25;stroke-miterlimit:10"
                 x1="-32"
                 x2="160"
                 y1="128"
                 y2="128"
                 id="line347" />
              <line
                 style="fill:none;stroke:#000000;stroke-width:0.25;stroke-miterlimit:10"
                 x1="-32"
                 x2="160"
                 y1="132"
                 y2="132"
                 id="line349" />
              <line
                 style="fill:none;stroke:#000000;stroke-width:0.25;stroke-miterlimit:10"
                 x1="-32"
                 x2="160"
                 y1="136"
                 y2="136"
                 id="line351" />
              <line
                 style="fill:none;stroke:#000000;stroke-width:0.25;stroke-miterlimit:10"
                 x1="-32"
                 x2="160"
                 y1="140"
                 y2="140"
                 id="line353" />
              <line
                 style="fill:none;stroke:#000000;stroke-width:0.25;stroke-miterlimit:10"
                 x1="-32"
                 x2="160"
                 y1="144"
                 y2="144"
                 id="line355" />
              <line
                 style="fill:none;stroke:#000000;stroke-width:0.25;stroke-miterlimit:10"
                 x1="-32"
                 x2="160"
                 y1="148"
                 y2="148"
                 id="line357" />
              <line
                 style="fill:none;stroke:#000000;stroke-width:0.25;stroke-miterlimit:10"
                 x1="-32"
                 x2="160"
                 y1="152"
                 y2="152"
                 id="line359" />
              <line
                 style="fill:none;stroke:#000000;stroke-width:0.25;stroke-miterlimit:10"
                 x1="-32"
                 x2="160"
                 y1="156"
                 y2="156"
                 id="line361" />
            </g>
            <path
               d="m 159.75,-31.75 v 191.5 h -191.5 v -191.5 h 191.5 M 160,-32 H -32 v 192 h 192 z"
               id="path365" />
          </g>
        </g>
        <g
           id="g379">
          <rect
             height="128"
             style="opacity:0.3;fill:#f44336"
             width="4"
             x="0"
             y="0"
             id="rect371" />
          <rect
             height="128"
             style="opacity:0.3;fill:#f44336"
             width="4"
             x="124"
             y="0"
             id="rect373" />
          <rect
             height="120"
             style="opacity:0.3;fill:#f44336"
             transform="rotate(90,64,2)"
             width="4"
             x="62"
             y="-58"
             id="rect375" />
          <rect
             height="120"
             style="opacity:0.3;fill:#f44336"
             transform="rotate(90,64,126)"
             width="4"
             x="62"
             y="66"
             id="rect377" />
        </g>
      </g>
    </g>
  </g>
</svg>
